#!OML:ASF C:\ViconDB\ViconDB\414\Spring2016\041811\Spring2016.ASF
:FULLY-SPECIFIED
:DEGREES
185
root 6.69447 17.5162 -9.84112 -167.388 -7.8084 177.689
lowerback 11.9639 0.970185 -4.86026
upperback 0.405306 0.556937 0.256943
thorax -6.34896 0.38594 2.92409
lowerneck -15.4748 -1.83088 -11.0347
upperneck 16.3827 -3.15262 14.6199
head 8.00563 -0.971094 6.42708
rclavicle 1.75427e-014 -1.39149e-015
rhumerus -22.2196 8.32683 -71.6139
rradius 97.3697
rwrist -0.942452
rhand -35.6773 -18.0667
rfingers 7.12502
rthumb -8.79845 -47.8633
lclavicle 1.75427e-014 -1.39149e-015
lhumerus -14.6569 -10.9243 60.3596
lradius 88.9071
lwrist 7.99463
lhand -33.7678 14.3407
lfingers 7.12502
lthumb -6.95541 44.2064
rfemur -17.0813 -14.7951 18.7551
rtibia 45.7343
rfoot -4.75411 -9.61527
rtoes -1.21118
lfemur -20.1366 0.143542 -16.8759
ltibia 44.0281
lfoot -25.6867 -0.528844
ltoes -21.1451
186
root 6.66237 17.7232 -10.1191 -167.612 -7.74191 178.169
lowerback 10.4655 0.796977 -4.33721
upperback 0.190772 0.502587 0.367695
thorax -5.72299 0.34782 2.75741
lowerneck -15.2335 -1.62504 -10.9053
upperneck 17.1131 -3.02033 14.5046
head 8.17618 -0.933258 6.40036
rclavicle -1.73937e-015 4.77083e-015
rhumerus -20.6957 9.30751 -70.3468
rradius 98.3179
rwrist -0.350951
rhand -35.2999 -18.4971
rfingers 7.12502
rthumb -8.4342 -48.3087
lclavicle -1.73937e-015 4.77083e-015
lhumerus -13.6366 -10.4384 58.8548
lradius 89.3663
lwrist 7.54214
lhand -33.4794 13.9979
lfingers 7.12502
lthumb -6.67702 43.8726
rfemur -15.6143 -14.5061 18.9776
rtibia 44.7558
rfoot -6.94962 -7.73765
rtoes -2.16522
lfemur -18.1878 -0.259886 -16.3385
ltibia 42.2152
lfoot -22.5816 -0.0639696
ltoes -21.4337
187
root 6.63447 17.9399 -10.3873 -168.104 -7.85604 178.324
lowerback 9.51695 0.637142 -3.96933
upperback 0.0738926 0.386473 0.345114
thorax -5.29884 0.279467 2.54472
lowerneck -14.8775 -1.44248 -10.7636
upperneck 17.4934 -2.90547 14.4738
head 8.2154 -0.89849 6.38571
rclavicle -1.59028e-014 -1.0138e-014
rhumerus -19.5341 10.0433 -69.1952
rradius 99.5512
rwrist -0.354865
rhand -34.6135 -18.2176
rfingers 7.12502
rthumb -7.7717 -48.0548
lclavicle -1.59028e-014 -1.0138e-014
lhumerus -12.6744 -10.3649 57.2549
lradius 90.0468
lwrist 7.90687
lhand -33.5754 13.9429
lfingers 7.12502
lthumb -6.76965 43.8147
rfemur -14.0957 -14.6383 18.7476
rtibia 44.1358
rfoot -9.43106 -5.66403
rtoes -3.31429
lfemur -16.1195 -0.751836 -16.1184
ltibia 40.5065
lfoot -19.1148 0.381892
ltoes -23.5706
188
root 6.61294 18.1646 -10.646 -168.588 -7.94326 178.424
lowerback 8.81141 0.513237 -3.88033
upperback 0.00245958 0.275388 0.459434
thorax -4.96806 0.222258 2.6296
lowerneck -14.8335 -1.34381 -10.8537
upperneck 17.9225 -2.78195 14.3338
head 8.32915 -0.865666 6.38068
rclavicle 1.04362e-014 -1.18277e-014
rhumerus -18.4123 11.3566 -67.8579
rradius 101.034
rwrist -2.419
rhand -35.5041 -17.9579
rfingers 7.12502
rthumb -8.63123 -47.7614
lclavicle 1.04362e-014 -1.18277e-014
lhumerus -11.9466 -10.175 55.8495
lradius 90.9286
lwrist 8.3684
lhand -33.7206 14.3404
lfingers 7.12502
lthumb -6.90985 44.2077
rfemur -13.0073 -15.0799 18.5421
rtibia 43.7521
rfoot -12.5693 -3.37214
rtoes -5.37849
lfemur -14.2813 -1.10377 -15.9296
ltibia 38.9858
lfoot -15.3116 0.806354
ltoes -24.6623
